# xmcd
# Track frame offsets:
# 150
# 17265
# 22562
# 39382
# 66982
# 85797
# 101680
# 126040
# 138597
# 161910
# 172860
# 204585
# 224312
# 238000
# 255797
#
# Disc length: 3542 seconds
# Revision: 0
# Processed by: cddbd v1.4PL0 Copyright (c) Steve Scherf et al.
# Submitted via: VisiTrax 2.9.5.180 - For more info visit www.synapsa.com
#
DISCID=b90dd40f
DTITLE=Waddie Mitchell - Live
DYEAR=1998
DGENRE=
TTITLE0=The Old Spinning Wheel
TTITLE1=Typical
TTITLE2=Goat On A Rope
TTITLE3=The Old Nighthawk
TTITLE4=Blood, Sweat, and Steers
TTITLE5=Sentence
TTITLE6="Bill Cheatam"
TTITLE7=The Owl Critic
TTITLE8=The Sounds A Cowboy Hears
TTITLE9=Cross-eyed Bull
TTITLE10=The Walkin' Man
TTITLE11="Red River Valley"
TTITLE12=Piddlin' Pete
TTITLE13=Swedish Waltz
TTITLE14=No Second Chance
EXTD=
EXTT0=
EXTT1=
EXTT2=
EXTT3=
EXTT4=
EXTT5=
EXTT6=
EXTT7=
EXTT8=
EXTT9=
EXTT10=
EXTT11=
EXTT12=
EXTT13=
EXTT14=
PLAYORDER=
